<svg width="24" height="24" viewBox="0 0 24 24" fill="none" xmlns="http://www.w3.org/2000/svg">
<mask id="mask0_267_5618" style="mask-type:alpha" maskUnits="userSpaceOnUse" x="0" y="1" width="24" height="22">
<path fill-rule="evenodd" clip-rule="evenodd" d="M22.7194 3.88125C23.2076 3.39309 23.2076 2.60163 22.7194 2.11348C22.2312 1.62533 21.4398 1.62534 20.9516 2.1135L2.95204 20.1135C2.46389 20.6017 2.4639 21.3931 2.95206 21.8813C3.44022 22.3694 4.23168 22.3694 4.71983 21.8812L7.30918 19.2918C10.2301 20.4317 13.5729 20.5152 16.7236 19.2766C20.0509 17.9675 22.6909 15.3384 24 12.0002C23.1452 9.83916 21.7449 7.9952 19.9928 6.60796L22.7194 3.88125ZM16.9314 9.66936L15.2146 11.3862C15.253 11.5872 15.2727 11.7927 15.2727 12.0002C15.2727 12.8682 14.9279 13.7007 14.3142 14.3144C13.7004 14.9282 12.868 15.273 12 15.273C11.7925 15.273 11.587 15.2533 11.3861 15.2149L9.66924 16.9317C10.3912 17.2729 11.1862 17.4548 12 17.4548C13.4466 17.4548 14.834 16.8801 15.8569 15.8572C16.8799 14.8343 17.4545 13.4469 17.4545 12.0002C17.4545 11.1864 17.2727 10.3913 16.9314 9.66936ZM12 3.81842C13.3905 3.81842 14.7434 4.04352 16.0179 4.46421L13.6734 6.80873C13.1376 6.636 12.5735 6.54569 12 6.54569C10.5534 6.54569 9.16598 7.12037 8.14305 8.14329C7.12013 9.16622 6.54545 10.5536 6.54545 12.0002C6.54545 12.5737 6.63577 13.1379 6.80853 13.6738L3.50006 16.9823C1.99866 15.6692 0.780715 13.9863 0 12.0002C1.94182 7.09115 6.69818 3.81842 12 3.81842ZM9.68583 9.68607C10.2391 9.13276 10.9702 8.79804 11.7447 8.73747L8.73723 11.7451C8.79778 10.9705 9.13251 10.2394 9.68583 9.68607Z" fill="currentColor"/>
</mask>
<g mask="url(#mask0_267_5618)">
<rect width="24" height="24" fill="currentColor"/>
</g>
</svg>
